<?xml version="1.0" encoding="UTF-8"?>
<!DOCTYPE svg PUBLIC "-//W3C//DTD SVG 1.0//EN" "http://www.w3.org/TR/2001/REC-SVG-20010904/DTD/svg10.dtd">
<svg shape-rendering="geometricPrecision" text-rendering="geometricPrecision" image-rendering="optimizeQuality" fill-rule="evenodd" xml:space="preserve" 
 xmlns="http://www.w3.org/2000/svg" xmlns:xlink="http://www.w3.org/1999/xlink"  viewBox="0 0 2800.3696389198303 476.3185119628906" width="280.036963891983mm" height="47.63185119628906mm" >
<g><path fill="#000000" d="M2240.8398,-0.24901168 L2236.7751,-0.10433304 2232.905,0.3227321 2229.1934,1.0381646 2225.6567,2.0471478 2222.31,3.355453 2219.1677,4.9697475 2216.2532,6.891286 2213.5798,9.124897 2211.1633,11.676021 2209.022,14.545278 2207.1692,17.737839 2205.62,21.259233 2204.3892,25.113594 2203.4927,29.306335 2202.9448,33.84198 2202.762,38.59047 2202.9448,43.45817 2203.4924,47.952488 2204.3882,52.074654 2205.6182,55.842346 2207.1675,59.261562 2209.0195,62.33886 2211.1633,65.08753 2213.5813,67.51221 2216.2578,69.61939 2219.1733,71.4159 2222.3157,72.91222 2225.666,74.11601 2229.2043,75.03573 2232.9126,75.68098 2236.7297,76.061195 2240.738,76.19183 2244.5237,76.06756 2248.0674,75.69862 2251.6006,75.065125 2255.026,74.16152 2258.326,72.9768 2261.6248,71.42044 2264.5916,69.624886 2267.3484,67.52117 2269.7349,65.24637 2272.1384,62.350555 2274.1196,59.270523 2275.7944,55.84667 2277.0825,52.255955 2278.1218,47.952145 2278.7297,43.453465 2278.9336,38.732697 2278.7153,33.685905 2278.122,29.308086 2277.0833,24.935936 2275.7932,21.2562 2274.1191,17.731413 2272.137,14.535016 2269.745,11.521266 2267.2085,8.988321 2264.4448,6.7761908 2261.4775,4.8770266 2258.3296,3.2847946 2255.0305,1.9959203 2251.6008,1.0032027 2248.0632,0.30142224 2244.45,-0.11358857 2240.8398,-0.24901168 Z M640.64923,59.58184 L676.82367,59.582424 677.2985,60.0573 677.29834,130.58128 677.07996,143.75923 676.42804,156.90982 675.3436,170.0255 673.8265,183.08891 671.8778,196.06528 669.4974,208.93231 666.6874,221.65562 663.4454,234.21996 659.77484,246.58583 655.6745,258.7334 651.1463,270.63083 646.1891,282.255 640.8032,293.57913 634.9913,304.57108 628.7542,315.20416 622.08856,325.45697 614.9989,335.2965 607.48285,344.6993 599.54254,353.63583 591.182,362.07584 582.39484,369.99924 573.1851,377.37482 563.5554,384.1743 553.5288,390.35907 548.3661,393.2134 537.69006,398.4593 526.5917,403.03754 520.88477,405.06754 515.0708,406.92078 509.1545,408.59238 503.13565,410.07938 497.0098,411.37936 490.77893,412.48862 484.44116,413.40372 478.00372,414.12045 471.4614,414.63626 464.80963,414.94788 340.59705,415.05133 340.1222,414.57648 340.1224,322.32016 340.23138,315.86484 340.55392,309.44824 341.08655,303.0535 341.82697,296.67548 342.77228,290.31958 343.91925,283.9907 345.26608,277.6866 348.54626,265.17337 352.5918,252.79858 354.90247,246.6517 360.06366,234.5088 365.9249,222.5846 372.47614,210.87126 379.69052,199.39865 387.55148,188.17955 396.03278,177.24165 405.11237,166.60555 414.77307,156.28746 424.98825,146.31369 435.74277,136.69939 446.5586,127.88191 457.8281,119.53364 469.51456,111.665535 481.57312,104.29438 493.96747,97.43152 506.65247,91.09339 519.5921,85.2917 532.7451,80.041016 546.0643,75.35771 559.5159,71.2531 573.06146,67.741165 586.65045,64.83834 600.2473,62.557 613.816,60.91076 627.3058,59.914814 640.64923,59.58184 Z M1442.4073,198.8195 L1448.1967,198.94885 1453.7529,199.3292 1459.1395,199.95705 1464.3578,200.82951 1469.4094,201.94398 1474.2863,203.29562 1478.9941,204.88316 1483.532,206.70387 1487.8918,208.75171 1492.0779,211.02534 1496.0908,213.52318 1499.9254,216.23946 1503.5833,219.1725 1507.0613,222.31766 1510.3624,225.67526 1513.482,229.23889 1516.4197,233.00548 1519.1786,236.97783 1521.7532,241.14732 1524.1437,245.51295 1526.3496,250.07175 1528.3685,254.8187 1530.2017,259.7554 1531.8463,264.87653 1533.3015,270.1791 1534.5658,275.6579 1535.6387,281.31448 1536.5195,287.1463 1537.2054,293.1427 1537.6968,299.3084 1537.9918,305.64 1538.0895,312.12955 1537.9885,318.56332 1537.6901,324.8419 1537.1948,330.9663 1536.5038,336.9337 1535.6187,342.73288 1534.5394,348.37042 1533.2692,353.8331 1531.8071,359.1246 1530.1543,364.24182 1528.3142,369.17383 1526.2847,373.92682 1524.0695,378.49033 1521.669,382.8639 1519.0841,387.04327 1516.316,391.02557 1513.366,394.8074 1510.235,398.38574 1506.926,401.75497 1503.4369,404.91562 1499.7698,407.86273 1495.9302,410.59015 1491.9136,413.09885 1487.7223,415.3845 1483.3577,417.44336 1478.8251,419.27054 1474.1163,420.8665 1469.2395,422.22498 1464.1932,423.3436 1458.9812,424.2184 1453.5986,424.8472 1448.0522,425.22556 1442.3325,425.35046 1436.8612,425.22064 1431.5323,424.83997 1426.3485,424.2113 1421.3112,423.3378 1416.4226,422.22238 1411.6849,420.8679 1407.1028,419.27823 1402.673,417.4547 1398.4001,415.401 1394.291,413.12268 1390.3383,410.61768 1386.55,407.8927 1382.9269,404.9494 1379.472,401.7923 1376.1862,398.4228 1373.0704,394.84354 1370.126,391.05545 1367.3562,387.06305 1364.766,382.87344 1362.353,378.48312 1360.1208,373.89703 1358.071,369.11584 1356.2089,364.15134 1354.5321,358.99496 1353.0448,353.65414 1351.7484,348.12906 1350.6464,342.4278 1349.7404,336.5506 1349.0322,330.5004 1348.5242,324.2799 1348.2184,317.89215 1348.1168,311.33987 1348.2218,304.9085 1348.5312,298.63354 1349.0433,292.5212 1349.7568,286.5644 1350.6678,280.78143 1351.7753,275.16748 1353.0776,269.7216 1354.5718,264.45367 1356.2559,259.36465 1358.1277,254.45757 1360.1853,249.736 1362.4263,245.20232 1364.8486,240.8604 1367.4503,236.71259 1370.2291,232.76244 1373.181,229.01514 1376.3074,225.46945 1379.6025,222.13231 1383.0681,219.00317 1386.6981,216.08852 1390.4927,213.38954 1394.4515,210.9079 1398.5684,208.64972 1402.8413,206.61739 1407.2726,204.81187 1411.8558,203.23824 1416.5912,201.89845 1421.4769,200.79576 1426.5109,199.9333 1431.6912,199.3143 1437.0155,198.94191 1442.4073,198.8195 Z M982.4826,-0.25 L981.80133,-0.11250331 981.2451,0.26249117 980.8701,0.81874007 980.7326,1.5 980.7326,465.92004 980.8701,466.60132 981.2451,467.15756 981.80133,467.53256 982.4826,467.67004 1038.8267,467.67004 1039.5079,467.53256 1040.0642,467.15756 1040.4392,466.60132 1040.5767,465.92004 1040.5767,289.61572 1040.732,289.21558 1070.8368,256.358 1071.5009,256.39166 1228.0957,466.96466 1228.7139,467.48416 1229.4998,467.67004 1296.8494,467.67004 1297.7651,467.41147 1298.41,466.71167 1298.5945,465.77652 1298.2598,464.88406 1113.864,213.75092 1113.8917,213.10487 1298.509,2.6531823 1298.9242,1.7568408 1298.7871,0.77857786 1298.1415,0.029431649 1297.1927,-0.25 1227.3322,-0.25 1226.629,-0.10278936 1226.0446,0.31486118 1040.9519,201.58626 1040.5767,201.43985 1040.5767,1.5 1040.4392,0.81874007 1040.0642,0.26249117 1039.5079,-0.11250331 1038.8267,-0.25 Z M2215.9985,152.33493 L2215.3171,152.47243 2214.761,152.84743 2214.386,153.40367 2214.2485,154.08493 2214.2485,465.92004 2214.386,466.60132 2214.761,467.15756 2215.3171,467.53256 2215.9985,467.67004 2267.049,467.67004 2267.7305,467.53256 2268.2866,467.15756 2268.6616,466.60132 2268.799,465.92004 2268.799,154.08493 2268.6616,153.40367 2268.2866,152.84743 2267.7305,152.47243 2267.049,152.33493 Z M1.4999974,-0.25 L0.81873745,-0.11250331 0.26248854,0.26249117 -0.112505935,0.81874007 -0.25000262,1.5 -0.25025415,146.29176 0.009895802,160.07545 0.7867693,173.75827 2.0700266,187.2974 3.8481896,200.67761 6.109947,213.88919 8.845718,226.92897 12.043117,239.77928 15.691601,252.43253 19.780182,264.87848 24.29873,277.10904 29.23357,289.10724 34.576443,300.87006 40.31533,312.38428 46.440586,323.64252 52.93874,334.62976 59.79867,345.33633 67.013466,355.75803 74.567924,365.87823 82.45096,375.68726 90.656296,385.18045 99.16644,394.34006 107.977135,403.1632 117.07038,411.63257 126.44065,419.7433 136.07504,427.48334 145.96254,434.84235 156.09023,441.809 166.45122,448.37585 177.03004,454.5298 187.82266,460.2646 198.80893,465.56503 207.94278,469.53577 208.6397,469.6805 209.3232,469.5424 209.87851,469.16748 210.2526,468.61157 210.38966,467.9305 210.38966,398.66367 210.14024,397.7627 209.46223,397.11905 201.85666,393.07236 193.69246,388.3468 185.71506,383.34378 177.92993,378.06967 170.34256,372.53082 162.95844,366.73367 155.78477,360.68613 148.82156,354.38977 142.08174,347.8576 135.56512,341.09094 129.27773,334.0961 123.229774,326.88498 117.420364,319.45645 111.861115,311.82468 106.55287,303.98993 101.50278,295.9608 96.71631,287.74356 92.198975,279.34464 87.9553,270.76837 83.99387,262.02777 80.31685,253.12225 76.93091,244.06064 73.84156,234.8493 71.05427,225.49461 68.574554,216.003 66.40746,206.37856 64.55992,196.63483 63.035847,186.77072 61.8413,176.79518 60.98189,166.71504 60.462883,156.53592 60.289684,146.28984 60.28993,69.71093 60.764805,69.23605 146.10246,69.23627 155.50737,69.39072 164.80373,69.85246 174.00735,70.6223 183.1185,71.70185 192.1261,73.09192 201.02956,74.79441 209.81831,76.809814 218.49165,79.14047 227.03699,81.78561 235.46037,84.75026 243.7421,88.0308 251.88596,91.631935 259.88663,95.555214 267.73364,99.79971 275.42383,104.36785 281.70734,108.45127 282.65796,108.733 283.44394,108.547455 284.0777,108.008064 292.97882,95.71501 303.23285,82.64377 314.02072,69.98548 324.08945,59.126316 324.4779,58.481934 324.5601,57.734013 324.31946,57.01979 323.80133,56.47249 315.55536,50.886116 305.566,44.626526 295.35312,38.729424 284.92496,33.205353 274.29828,28.068476 263.46985,23.323164 252.45045,18.981213 241.25505,15.055101 229.88681,11.552793 218.34929,8.483343 206.66032,5.859272 194.82057,3.6887918 182.84076,1.9826276 170.73132,0.7509086 158.49313,0.0031803846 146.11205,-0.24965203 1.4999974,-0.25 Z M1803.3983,148.09334 L1794.8136,148.30496 1786.3784,148.93869 1778.1608,149.97748 1770.1742,151.40582 1762.4415,153.20657 1754.9785,155.36401 1747.8011,157.86281 1740.9332,160.68517 1734.3893,163.81577 1728.1903,167.23721 1722.3525,170.93431 1716.8921,174.89256 1711.8309,179.0931 1707.1494,183.56076 1702.9404,188.20424 1699.9127,192.10287 1699.5944,191.9939 1699.5944,156.7531 1699.4569,156.07184 1699.0819,155.5156 1698.5256,155.1406 1697.8444,155.0031 1646.7487,155.0031 1646.0674,155.1406 1645.5111,155.5156 1645.1361,156.07184 1644.9987,156.7531 1644.9987,468.7179 1645.1361,469.39917 1645.5111,469.9554 1646.0674,470.3304 1646.7487,470.4679 1699.2218,470.4679 1699.9031,470.3304 1700.4594,469.9554 1700.8344,469.39917 1700.9718,468.7179 1700.9718,246.2713 1701.1179,245.88 1708.0796,238.14069 1712.105,234.10876 1716.4231,230.09265 1721.0193,226.14087 1725.8839,222.29666 1731.0095,218.60295 1736.3798,215.10887 1741.9867,211.85721 1747.8169,208.89458 1753.8597,206.2661 1760.103,204.01686 1766.4286,202.21823 1773.031,200.85558 1779.8011,200.00533 1786.7268,199.71259 1796.6509,200.01839 1805.5211,200.90541 1813.774,202.4125 1821.1027,204.48679 1824.4972,205.74747 1827.704,207.15405 1830.7275,208.70613 1833.5691,210.40182 1836.2366,212.24318 1838.7288,214.22546 1841.053,216.35083 1843.2133,218.61906 1845.2109,221.02608 1847.0563,223.57922 1848.7468,226.27032 1851.6887,232.07826 1852.92,235.12164 1855.042,241.79123 1856.6404,249.01964 1857.7566,256.90668 1858.3923,265.24146 1858.5962,274.10205 1858.5957,468.7179 1858.7332,469.39917 1859.1082,469.9554 1859.6644,470.3304 1860.3457,470.4679 1912.8191,470.4679 1913.5004,470.3304 1914.0566,469.9554 1914.4316,469.39917 1914.5691,468.7179 1914.4745,261.984 1914.1863,254.91759 1913.7023,248.07224 1913.02,241.44131 1912.1377,235.03076 1911.052,228.83888 1909.7606,222.86449 1908.2625,217.11557 1906.5524,211.58353 1904.6304,206.2768 1902.4929,201.1937 1900.1375,196.33527 1897.5619,191.70296 1894.7618,187.29543 1891.7363,183.11584 1888.4828,179.16559 1884.9987,175.4462 1881.28,171.95686 1877.3259,168.7007 1873.1321,165.67761 1868.6984,162.89044 1864.0197,160.33896 1859.0986,158.02684 1853.9286,155.95297 1848.5095,154.11957 1842.8394,152.52751 1836.9181,151.17807 1830.7361,150.07083 1824.301,149.20837 1817.6051,148.59055 1810.6443,148.21834 1803.3983,148.09334 Z M640.6125,-0.24600673 L624.72504,0.13011599 608.71796,1.2552395 592.6447,3.1182036 576.5579,5.7066846 560.5015,9.007442 544.5098,13.009099 528.62665,17.69799 512.88824,23.062317 497.33365,29.089645 482.00198,35.767628 466.9322,43.08392 452.16336,51.02604 437.73627,59.58043 423.6881,68.73575 410.0551,78.481346 396.8672,88.81358 384.17316,99.71263 378.03168,105.363945 366.1693,117.074295 360.45996,123.12832 354.902,129.31593 349.50223,135.63373 344.2669,142.07832 339.19775,148.65204 334.3014,155.3513 329.5827,162.17455 325.04666,169.12018 320.69916,176.18474 316.5425,183.37085 312.58414,190.67271 308.82556,198.09526 305.2761,205.62799 301.93732,213.27628 298.81522,221.03616 295.91483,228.90607 293.24158,236.8823 290.79816,244.97018 288.59286,253.15642 286.62744,261.45132 284.9076,269.85077 283.43942,278.3464 282.2263,286.94617 281.27426,295.64087 280.5877,304.43164 280.1717,313.31467 280.03094,322.3186 280.03073,473.13107 280.16394,473.80075 280.5433,474.3685 281.11087,474.74838 281.78073,474.88107 458.08755,474.88123 466.00275,474.7759 473.8616,474.45822 481.63748,473.92892 489.3362,473.1879 496.947,472.2366 504.4763,471.07483 511.92053,469.70328 519.27856,468.12262 526.54736,466.33392 533.73285,464.33594 540.82434,462.13187 547.8283,459.72006 554.7412,457.1018 561.5618,454.27777 568.2895,451.24838 574.9227,448.01425 581.4629,444.57477 587.9025,440.93408 594.2473,437.08902 600.4957,433.04007 606.64087,428.792 612.68976,424.3396 618.6353,419.68784 624.4786,414.8358 630.21826,409.78424 635.85565,404.53168 641.38586,399.08228 646.8098,393.43484 652.128,387.58813 657.33606,381.5465 662.4349,375.30844 667.4234,368.87457 676.0867,356.78055 684.1521,344.23648 691.6353,331.2431 698.53314,317.82812 704.847,304.01578 710.5836,289.82083 715.7484,275.26056 720.34686,260.35193 724.38367,245.11452 727.866,229.55826 730.79706,213.71005 733.1841,197.57729 735.03094,181.18687 736.3443,164.54605 737.1286,147.68422 737.38983,130.58281 737.39,1.5039933 737.2525,0.82273334 736.8775,0.26648444 736.3213,-0.10851004 735.64,-0.24600673 Z M2452.6868,148.09341 L2444.903,148.2379 2437.3225,148.67137 2430.0557,149.38156 2423.0833,150.35919 2416.4043,151.59402 2410.0205,153.07478 2403.927,154.79066 2398.1138,156.73349 2392.5837,158.89066 2387.3308,161.2525 2382.3518,163.80855 2377.64,166.5498 2373.1943,169.46461 2369.013,172.54108 2365.0884,175.77156 2361.419,179.14441 2358.001,182.64883 2354.83,186.27469 2351.9033,190.01115 2349.2156,193.84988 2346.764,197.77852 2344.5457,201.78633 2342.558,205.85855 2340.793,209.99574 2339.2512,214.17593 2337.9265,218.39342 2336.8147,222.64226 2335.914,226.9 2335.2195,231.16618 2334.4326,239.67578 2334.3325,243.87328 2334.6228,251.65955 2335.5205,259.28943 2336.9607,266.34863 2339.0198,273.27002 2341.6738,279.88443 2345.0142,286.33685 2348.8872,292.30948 2353.2554,297.81802 2358.3333,303.11765 2364.1436,308.15207 2370.4497,312.70514 2377.252,316.81128 2384.7966,320.6044 2392.9136,323.9756 2401.7097,326.9526 2411.1682,329.51004 2466.538,342.6023 2471.9546,344.0793 2477.076,345.68005 2481.888,347.41132 2486.3901,349.2848 2490.57,351.30783 2494.331,353.4341 2497.84,355.76926 2501.007,358.2783 2503.8254,360.96994 2506.289,363.85284 2508.3914,366.93616 2510.126,370.22943 2511.487,373.74258 2512.4678,377.48572 2513.0613,381.46936 2513.2573,385.7682 2512.9326,391.41754 2511.9702,396.74265 2510.3994,401.68436 2508.2449,406.24493 2505.4797,410.4923 2502.2854,414.23776 2498.47,417.72025 2494.2861,420.74606 2489.5818,423.449 2484.4402,425.78644 2478.8865,427.75998 2472.8477,429.39386 2466.5503,430.6363 2459.9197,431.52026 2452.9763,432.04822 2445.7402,432.22113 2436.7405,431.96384 2428.3765,431.2243 2420.611,430.03812 2413.4023,428.43878 2406.719,426.4618 2400.5254,424.14212 2394.7854,421.51447 2389.4626,418.61362 2384.5212,415.47394 2379.9233,412.12823 2375.6323,408.61026 2371.617,404.95724 2364.2502,397.36136 2358.629,390.869 2358.0625,390.4357 2357.37,390.26526 2356.6372,390.39618 2356.07,390.77475 2324.3125,422.39847 2323.9456,422.9336 2323.8,423.5452 2323.8801,424.16873 2324.1885,424.73965 2326.9856,428.18854 2331.0952,432.80255 2335.6345,437.41736 2340.6265,441.98764 2346.0945,446.4674 2352.0562,450.806 2358.5388,454.96008 2365.5547,458.8768 2373.1348,462.51355 2381.2976,465.8208 2390.0571,468.74863 2399.4438,471.2526 2409.475,473.28384 2420.1711,474.79468 2431.5527,475.73773 2443.6626,476.0655 2451.6477,475.94345 2459.3445,475.57724 2466.7727,474.97342 2473.9338,474.13803 2480.8286,473.07733 2487.4587,471.7974 2493.822,470.30496 2499.9253,468.60507 2505.7693,466.70358 2511.3484,464.60895 2516.6724,462.3239 2521.736,459.8574 2526.5425,457.21454 2531.091,454.40277 2535.3862,451.42572 2539.4302,448.2892 2543.219,445.00226 2546.7578,441.56787 2550.0454,437.99393 2553.0815,434.28842 2555.8691,430.45587 2558.4119,426.4982 2560.7075,422.4256 2562.7551,418.24878 2564.5596,413.9653 2566.12,409.58783 2567.4392,405.11588 2568.5156,400.56534 2569.352,395.93506 2569.9487,391.2361 2570.3076,386.47025 2570.4304,381.67352 2570.0918,373.2972 2569.083,365.38074 2567.377,357.76733 2566.2693,354.1205 2563.5408,347.1158 2561.9167,343.75046 2558.1565,337.30942 2553.703,331.2386 2551.219,328.34573 2548.4548,325.44254 2542.6082,320.12842 2536.2046,315.27798 2528.9883,310.69656 2521.1296,306.50546 2512.5266,302.65308 2503.235,299.16626 2493.2454,296.03906 2482.5417,293.26678 2428.5269,280.86475 2423.411,279.4701 2418.7283,277.89246 2414.4487,276.13428 2410.6553,274.2537 2407.145,272.16342 2404.0005,269.91217 2401.2104,267.50607 2398.7625,264.9512 2396.6453,262.2534 2394.847,259.41824 2393.3562,256.45132 2392.1611,253.35783 2391.2395,250.08856 2390.6082,246.76366 2390.24,243.37239 2390.1182,239.82777 2390.3303,235.11966 2390.9707,230.52303 2392.0496,226.06221 2393.5764,221.76447 2395.5618,217.65625 2398.0154,213.76402 2400.9475,210.11456 2404.3691,206.73412 2408.2915,203.64911 2412.7244,200.88673 2417.7363,198.45184 2423.167,196.43837 2429.199,194.80716 2435.7854,193.60785 2443.0396,192.8613 2450.7498,192.61578 2457.4697,192.79482 2463.9617,193.31087 2470.209,194.14638 2476.2266,195.28583 2482.0044,196.71005 2487.5466,198.40178 2492.8608,200.34537 2497.9463,202.52295 2502.8035,204.91629 2507.436,207.50914 2511.847,210.28452 2516.0378,213.22522 2520.0132,216.31587 2523.7703,219.53604 2529.5225,225.14383 2530.0962,225.53555 2530.7795,225.6736 2531.463,225.53397 2532.0369,225.13805 2562.4714,193.54161 2562.832,192.9879 2562.9607,192.36072 2562.8562,191.72905 2562.517,191.16191 2559.9226,188.25417 2555.9104,184.23422 2551.4702,180.25471 2546.5962,176.34894 2541.2844,172.55223 2535.5288,168.89883 2529.3315,165.42773 2522.6821,162.17026 2515.5789,159.16318 2508.0176,156.4418 2499.9924,154.04094 2491.5059,151.99773 2482.5452,150.34535 2473.1104,149.12015 2463.198,148.3576 2452.6868,148.09341 Z M1443.7493,148.09354 L1434.6919,148.29195 1425.7979,148.8902 1417.1785,149.8795 1408.8328,151.25215 1400.7689,152.99861 1392.9805,155.11215 1385.4716,157.5842 1378.2404,160.40756 1371.291,163.57335 1364.6285,167.07108 1358.246,170.89705 1352.1483,175.04091 1346.3372,179.49454 1340.8115,184.25137 1335.577,189.29974 1330.6304,194.6351 1325.9752,200.24728 1321.6138,206.12607 1317.5446,212.26721 1313.7697,218.66035 1310.2908,225.29723 1307.11,232.16707 1304.2258,239.26646 1301.6396,246.58731 1299.3551,254.11407 1297.371,261.84543 1295.6882,269.7736 1294.3099,277.88278 1293.2351,286.1722 1292.4656,294.63116 1292.0024,303.24902 1291.8463,312.02484 1292.0018,320.78848 1292.4716,329.40918 1293.2528,337.86353 1294.3428,346.14642 1295.7413,354.2591 1297.4437,362.17862 1299.45,369.9092 1301.7563,377.43518 1304.3615,384.75107 1307.2626,391.84854 1310.4579,398.71942 1313.9451,405.3552 1317.7223,411.74835 1321.7883,417.8918 1326.1384,423.7739 1330.7719,429.38837 1335.6879,434.72824 1340.8813,439.7823 1346.353,444.54514 1352.0994,449.00714 1358.1182,453.15985 1364.4066,456.99466 1370.965,460.50494 1377.7866,463.6798 1384.8713,466.51245 1392.2195,468.9953 1399.8232,471.11832 1407.6884,472.87546 1415.8024,474.2562 1424.1729,475.25403 1432.7877,475.8597 1441.6543,476.06577 1451.0098,475.8685 1460.0732,475.2755 1468.847,474.2946 1477.3308,472.93335 1485.522,471.19998 1493.4243,469.101 1501.0377,466.6438 1508.3568,463.83746 1515.3835,460.68893 1522.1168,457.2058 1528.5588,453.39456 1534.7065,449.2637 1540.5613,444.81955 1546.1167,440.07452 1551.3777,435.03168 1556.3439,429.6984 1561.0131,424.084 1565.3844,418.19653 1569.4558,412.04572 1573.2311,405.6331 1576.7056,398.9729 1579.8795,392.07288 1582.755,384.934 1585.3289,377.5711 1587.6011,369.99173 1589.5732,362.19653 1591.2426,354.20065 1592.6095,346.01163 1593.6744,337.62985 1594.4355,329.07297 1594.8936,320.3411 1595.0475,311.44458 1594.8958,302.74133 1594.437,294.182 1593.673,285.7826 1592.6045,277.54874 1591.2328,269.48874 1589.5587,261.60864 1587.5841,253.92172 1585.3108,246.43579 1582.7372,239.1522 1579.8671,232.0867 1576.7009,225.24493 1573.2399,218.63533 1569.485,212.26656 1565.437,206.14616 1561.0979,200.2833 1556.4668,194.68384 1551.5463,189.3588 1546.3397,184.31801 1540.8463,179.5681 1535.0652,175.11586 1528.998,170.96992 1522.6517,167.14317 1516.0194,163.63852 1509.1062,160.467 1501.9159,157.63795 1494.4458,155.15813 1486.6986,153.03638 1478.6761,151.28131 1470.3799,149.90112 1461.8107,148.90413 1452.9677,148.29854 1443.7493,148.09354 Z M2706.6443,64.43445 L2654.3394,74.27079 2653.7664,74.48654 2653.3147,74.87262 2653.0186,75.387764 2652.9124,75.99073 2652.9124,152.85251 2652.4375,153.32738 2594.0881,153.31776 2593.4072,153.45589 2592.852,153.83081 2592.4778,154.38672 2592.3408,155.06776 2592.3408,199.79112 2592.4783,200.47238 2592.8533,201.02863 2593.4094,201.40363 2594.0908,201.54112 2652.4373,201.54112 2652.9124,202.01611 2652.9119,383.8012 2653.1948,393.90796 2654.059,403.59857 2655.5332,412.85706 2657.5996,421.51892 2658.8806,425.70184 2661.8992,433.57407 2663.6492,437.29324 2665.5625,440.86447 2667.641,444.2859 2669.8853,447.55075 2672.3003,450.66077 2674.8845,453.60718 2677.6401,456.38803 2680.5715,459.0022 2683.678,461.44348 2686.9634,463.7106 2690.4248,465.79694 2694.0688,467.70172 2697.894,469.4199 2701.9026,470.94873 2706.0955,472.28445 2710.4766,473.4245 2715.0454,474.365 2719.8013,475.10226 2724.7498,475.6337 2729.8887,475.95593 2735.2122,476.06613 2744.534,475.81705 2753.6592,475.08884 2762.5066,473.92194 2771.0056,472.35678 2779.072,470.43698 2786.6472,468.2002 2793.6467,465.6908 2799.0752,463.34616 2799.8965,462.6154 2800.1194,461.53894 2794.9075,416.8685 2794.6401,416.1204 2794.0686,415.56836 2793.1697,415.31882 2792.5266,415.44153 2783.925,418.5891 2778.4998,420.23166 2772.984,421.64764 2767.436,422.8039 2761.9075,423.6688 2756.4624,424.208 2751.2673,424.3894 2745.7554,424.1805 2740.662,423.56207 2735.9785,422.5447 2731.6975,421.13943 2727.8083,419.3567 2724.2412,417.1591 2721.173,414.7008 2718.3596,411.78677 2715.9585,408.59293 2713.933,405.1338 2712.2083,401.29224 2710.814,397.13922 2709.735,392.6375 2708.975,387.83774 2708.535,382.8176 2708.3926,377.5682 2708.3933,202.01611 2708.8684,201.54112 2791.553,201.54112 2792.2344,201.40363 2792.7905,201.02863 2793.1655,200.47238 2793.303,199.79112 2793.303,155.0775 2793.1655,154.39624 2792.7905,153.84 2792.2344,153.465 2791.553,153.3275 2708.8684,153.3275 2708.3933,152.85251 2708.3933,66.18459 2708.2273,65.441376 2707.7617,64.83866 2707.2358,64.53772 2706.6443,64.43445 Z M2062.7256,64.678276 L2010.8899,74.50502 2010.3193,74.72189 2009.8693,75.10831 2009.5741,75.62282 2009.4681,76.22396 2009.4681,153.04251 2008.9934,153.51794 1951.1744,153.62265 1950.4934,153.76118 1949.9377,154.13704 1949.5636,154.69386 1949.4271,155.37534 1949.4271,199.95267 1949.5646,200.63393 1949.9396,201.19017 1950.4958,201.56517 1951.1771,201.70267 2008.9933,201.70267 2009.4681,202.17754 2009.4675,383.85587 2009.7479,393.95657 2010.6063,403.64377 2012.0682,412.895 2014.1183,421.5532 2015.3883,425.73114 2018.3821,433.5989 2020.1176,437.31598 2022.0156,440.88715 2024.0759,444.30466 2026.3029,447.56955 2028.6948,450.6739 2031.2571,453.61877 2033.9912,456.40015 2036.8976,459.01254 2039.9777,461.45297 2043.2328,463.71735 2046.6669,465.80408 2050.277,467.70663 2054.0698,469.42435 2058.0457,470.95325 2062.2046,472.28912 2066.5457,473.42804 2071.0725,474.3677 2075.7886,475.10495 2080.6938,475.6363 2085.7874,475.95834 2091.0637,476.0685 2100.3079,475.8197 2109.3618,475.09174 2118.137,473.92538 2126.5645,472.36154 2134.569,470.44153 2142.0764,468.2074 2149.0166,465.69955 2154.398,463.3566 2155.2148,462.62537 2155.437,461.5515 2150.2502,416.78256 2150.033,416.21286 2149.6462,415.76367 2149.132,415.46918 2148.529,415.36343 2147.8713,415.49277 2139.3767,418.62427 2134.0002,420.265 2128.5315,421.68008 2123.027,422.83636 2117.549,423.70016 2112.1536,424.23898 2107.0017,424.42035 2101.537,424.21155 2096.4863,423.5935 2091.8423,422.5769 2087.5964,421.17255 2083.7397,419.39117 2080.2007,417.19482 2077.1575,414.73843 2074.368,411.82816 2071.984,408.63437 2069.974,405.17758 2068.2622,401.33804 2066.8784,397.18756 2065.8074,392.6885 2065.053,387.8912 2064.6165,382.87665 2064.4749,377.6277 2064.4756,202.17766 2064.9507,201.70267 2146.9146,201.70267 2147.596,201.56517 2148.152,201.19017 2148.527,200.63393 2148.6646,199.95267 2148.6646,155.26663 2148.527,154.58537 2148.152,154.02913 2147.596,153.65413 2146.9146,153.51663 2064.9507,153.51663 2064.4756,153.04164 2064.4756,66.42829 2064.3096,65.683586 2063.842,65.08064 2063.3167,64.781136 2062.7256,64.678276 Z " />
</g></svg>